<svg xmlns="http://www.w3.org/2000/svg" viewBox="0 0 200 200" width="200" height="200">
  <!-- 몬스터 몸체 -->
  <polygon points="100,30 140,80 120,140 80,140 60,80" fill="#A3C4F3" stroke="#8A89C0" stroke-width="3" />
  
  <!-- 눈 -->
  <circle cx="85" cy="90" r="12" fill="white" stroke="#333" stroke-width="2" />
  <circle cx="115" cy="90" r="12" fill="white" stroke="#333" stroke-width="2" />
  <circle cx="85" cy="90" r="6" fill="#333" />
  <circle cx="115" cy="90" r="6" fill="#333" />
  
  <!-- 빛나는 효과 -->
  <circle cx="83" cy="88" r="2" fill="white" />
  <circle cx="113" cy="88" r="2" fill="white" />
  
  <!-- 입 -->
  <path d="M85 120 Q100 130 115 120" stroke="#333" stroke-width="2" fill="#CDDAFD" />
  
  <!-- 뿔/장식 -->
  <path d="M100 30 L90 10 L110 10 Z" fill="#CDDAFD" stroke="#8A89C0" stroke-width="2" />
  <path d="M60 80 L40 70 L50 90 Z" fill="#CDDAFD" stroke="#8A89C0" stroke-width="2" />
  <path d="M140 80 L160 70 L150 90 Z" fill="#CDDAFD" stroke="#8A89C0" stroke-width="2" />
  
  <!-- 다리 -->
  <path d="M80 140 L70 180 L85 180 Z" fill="#A3C4F3" stroke="#8A89C0" stroke-width="2" />
  <path d="M120 140 L130 180 L115 180 Z" fill="#A3C4F3" stroke="#8A89C0" stroke-width="2" />
  
  <!-- 무늬 -->
  <circle cx="100" cy="60" r="10" fill="#DFD3FA" stroke="#8A89C0" stroke-width="1" />
  <circle cx="75" cy="100" r="8" fill="#DFD3FA" stroke="#8A89C0" stroke-width="1" />
  <circle cx="125" cy="100" r="8" fill="#DFD3FA" stroke="#8A89C0" stroke-width="1" />
  
  <!-- 수학 기호 문제 -->
  <rect x="85" y="65" width="30" height="25" rx="5" ry="5" fill="white" stroke="#333" stroke-width="1" />
  <text x="91" y="84" font-family="Arial" font-size="16" font-weight="bold" fill="#333">?</text>
</svg> 