<svg xmlns="http://www.w3.org/2000/svg" viewBox="0 0 200 200" width="200" height="200">
  <!-- 몬스터 몸체 -->
  <circle cx="100" cy="100" r="80" fill="#ADE8F4" stroke="#0077B6" stroke-width="3" />
  
  <!-- 눈 -->
  <circle cx="70" cy="80" r="15" fill="white" stroke="#333" stroke-width="2" />
  <circle cx="130" cy="80" r="15" fill="white" stroke="#333" stroke-width="2" />
  <circle cx="70" cy="80" r="8" fill="#333" />
  <circle cx="130" cy="80" r="8" fill="#333" />
  
  <!-- 빛나는 효과 -->
  <circle cx="67" cy="77" r="3" fill="white" />
  <circle cx="127" cy="77" r="3" fill="white" />
  
  <!-- 입 -->
  <path d="M70 130 Q100 150 130 130" fill="#0096C7" stroke="#333" stroke-width="2" />
  
  <!-- 이빨 -->
  <polygon points="80,130 90,130 85,140" fill="white" stroke="#333" stroke-width="1" />
  <polygon points="100,135 110,135 105,145" fill="white" stroke="#333" stroke-width="1" />
  <polygon points="120,130 110,130 115,140" fill="white" stroke="#333" stroke-width="1" />
  
  <!-- 뿔 -->
  <path d="M70 40 L50 10 L90 30" fill="#48CAE4" stroke="#0077B6" stroke-width="2" />
  <path d="M130 40 L150 10 L110 30" fill="#48CAE4" stroke="#0077B6" stroke-width="2" />
  
  <!-- 귀여운 볼 -->
  <circle cx="60" cy="100" r="10" fill="#90E0EF" opacity="0.7" />
  <circle cx="140" cy="100" r="10" fill="#90E0EF" opacity="0.7" />
  
  <!-- 수학 기호 문제 -->
  <rect x="85" y="60" width="30" height="25" rx="5" ry="5" fill="white" stroke="#333" stroke-width="1" />
  <text x="91" y="79" font-family="Arial" font-size="16" font-weight="bold" fill="#333">?</text>
</svg> 